<?xml version="1.0" encoding="UTF-8"?>
<!DOCTYPE svg PUBLIC "-//W3C//DTD SVG 1.1//EN" "http://www.w3.org/Graphics/SVG/1.1/DTD/svg11.dtd">
<!-- Creator: CorelDRAW X7 -->
<svg xmlns="http://www.w3.org/2000/svg" xml:space="preserve" width="1000px" height="152px" version="1.1" style="shape-rendering:geometricPrecision; text-rendering:geometricPrecision; image-rendering:optimizeQuality; fill-rule:evenodd; clip-rule:evenodd"
viewBox="0 0 1050 160"
 xmlns:xlink="http://www.w3.org/1999/xlink">
 <defs>
  <style type="text/css">
   <![CDATA[
    .fil0 {fill:black}
    .fil1 {fill:#FD2F39}
    .fil2 {fill:#FD2F39;fill-rule:nonzero}
   ]]>
  </style>
 </defs>
 <g id="Layer_x0020_1">
  <metadata id="CorelCorpID_0Corel-Layer"/>
  <g id="_1749838088000">
   <path class="fil0" d="M61 80c0,10 8,19 19,19 10,0 19,-9 19,-19 0,-11 -9,-19 -19,-19 -11,0 -19,8 -19,19z"/>
   <path class="fil1" d="M29 80c0,-28 23,-51 51,-51 28,0 51,23 51,51 0,28 -23,51 -51,51 -1,0 -6,0 -7,0 -10,2 -14,23 0,28 0,1 6,1 7,1 37,0 68,-25 77,-60l19 0c5,0 9,-4 9,-9 0,-4 -4,-8 -9,-8l-16 0c0,-1 0,-2 0,-3 0,-1 0,-2 0,-2l16 0c5,0 9,-4 9,-9 0,-5 -4,-9 -9,-9l-19 0c-9,-35 -40,-60 -77,-60 -44,0 -80,36 -80,80 0,3 0,5 0,8l0 57c0,19 29,19 29,0l0 -3 0 -1 0 0c0,-20 0,-41 0,-61z"/>
  </g>
  <path class="fil2" d="M207 83c0,-11 3,-21 7,-29 5,-9 12,-16 20,-20 9,-5 18,-8 29,-8 13,0 24,4 34,11 9,7 15,16 19,28l-30 0c-2,-4 -5,-8 -10,-10 -4,-3 -8,-4 -13,-4 -9,0 -15,3 -21,9 -5,5 -7,13 -7,23 0,10 2,17 7,23 6,6 12,9 21,9 5,0 9,-1 13,-4 5,-2 8,-6 10,-10l30 0c-4,12 -10,21 -19,28 -10,7 -21,10 -34,10 -11,0 -20,-2 -29,-7 -8,-5 -15,-11 -20,-20 -4,-8 -7,-18 -7,-29zm221 -55l0 110 -27 0 0 -45 -42 0 0 45 -27 0 0 -110 27 0 0 43 42 0 0 -43 27 0zm46 0l0 110 -27 0 0 -110 27 0zm84 110l-37 -48 0 48 -27 0 0 -110 27 0 0 48 37 -48 32 0 -43 54 44 56 -33 0zm98 2c-10,0 -20,-3 -28,-8 -9,-5 -16,-11 -21,-20 -5,-9 -8,-18 -8,-29 0,-11 3,-21 8,-29 5,-9 12,-16 21,-21 8,-4 18,-7 28,-7 11,0 20,3 29,7 9,5 15,12 20,21 5,8 8,18 8,29 0,11 -3,20 -8,29 -5,9 -12,15 -20,20 -9,5 -18,8 -29,8zm0 -25c9,0 16,-3 21,-9 6,-6 8,-14 8,-23 0,-10 -2,-18 -8,-24 -5,-6 -12,-8 -21,-8 -9,0 -16,2 -21,8 -5,6 -8,14 -8,24 0,10 3,17 8,23 5,6 12,9 21,9zm124 25c-10,0 -20,-3 -28,-8 -9,-5 -16,-11 -21,-20 -5,-9 -8,-18 -8,-29 0,-11 3,-21 8,-29 5,-9 12,-16 21,-21 8,-4 18,-7 28,-7 11,0 20,3 29,7 9,5 15,12 20,21 5,8 8,18 8,29 0,11 -3,20 -8,29 -5,9 -12,15 -20,20 -9,5 -18,8 -29,8zm0 -25c9,0 16,-3 21,-9 6,-6 8,-14 8,-23 0,-10 -2,-18 -8,-24 -5,-6 -12,-8 -21,-8 -9,0 -16,2 -21,8 -5,6 -8,14 -8,24 0,10 3,17 8,23 5,6 12,9 21,9zm101 1l47 0 0 22 -78 0 0 -20 47 -68 -47 0 0 -22 78 0 0 20 -47 68zm134 3l-42 0 -6 19 -28 0 40 -110 31 0 40 110 -29 0 -6 -19zm-7 -21l-14 -41 -13 41 27 0z"/>
 </g>
</svg>
