<?xml version="1.0" standalone="no"?>
<!DOCTYPE svg PUBLIC "-//W3C//DTD SVG 20010904//EN"
 "http://www.w3.org/TR/2001/REC-SVG-20010904/DTD/svg10.dtd">
<svg version="1.0" xmlns="http://www.w3.org/2000/svg"
 width="400.000000pt" height="400.000000pt" viewBox="0 0 400.000000 400.000000"
 preserveAspectRatio="xMidYMid meet">

<g transform="translate(0.000000,400.000000) scale(0.100000,-0.100000)"
fill="#000000" stroke="none">
<path d="M1535 3684 c-297 -45 -528 -130 -750 -278 -374 -250 -625 -618 -726
-1071 -23 -99 -23 -112 -26 -928 -4 -919 -5 -905 60 -996 24 -33 52 -56 100
-80 60 -31 76 -35 147 -35 71 0 87 4 147 35 75 38 124 93 145 162 10 33 12
155 8 552 -9 951 -7 1087 18 1188 84 335 286 589 587 738 138 68 235 95 391
111 94 10 130 9 230 -5 691 -97 1110 -757 904 -1423 -80 -261 -270 -488 -520
-623 -175 -94 -325 -131 -538 -131 -155 0 -175 -5 -224 -57 -15 -15 -39 -55
-55 -88 -24 -52 -28 -72 -28 -155 0 -78 4 -104 23 -145 29 -64 74 -110 137
-142 49 -25 53 -26 200 -20 82 3 189 13 236 21 652 109 1166 560 1362 1196
l14 45 240 5 241 5 38 30 c50 41 74 89 74 148 0 50 -24 110 -56 138 -51 45
-74 49 -284 49 l-200 0 0 55 0 55 189 0 c194 0 232 6 284 44 56 41 83 143 56
213 -13 35 -54 79 -94 101 -25 14 -71 18 -258 22 l-228 5 -35 105 c-191 575
-672 1000 -1279 1130 -79 17 -142 22 -300 25 -110 2 -213 1 -230 -1z"/>
<path d="M1619 2387 c-238 -67 -364 -340 -260 -563 121 -260 456 -321 656
-120 169 168 162 426 -15 589 -38 35 -80 63 -117 78 -71 27 -198 35 -264 16z"/>
</g>
</svg>
