<svg width="191" height="30" viewBox="0 0 191 30" fill="none" xmlns="http://www.w3.org/2000/svg">
<path fill-rule="evenodd" clip-rule="evenodd" d="M11.0962 15C11.0962 16.875 12.5514 18.5625 14.5524 18.5625C16.3714 18.5625 18.0086 16.875 18.0086 15C18.0086 12.9375 16.3714 11.4375 14.5524 11.4375C12.5514 11.4375 11.0962 12.9375 11.0962 15Z" fill="white"/>
<path fill-rule="evenodd" clip-rule="evenodd" d="M5.27524 15C5.27524 9.75 9.45905 5.4375 14.5524 5.4375C19.6457 5.4375 23.8295 9.75 23.8295 15C23.8295 20.25 19.6457 24.5625 14.5524 24.5625C14.3705 24.5625 13.461 24.5625 13.279 24.5625C11.46 24.9375 10.7324 28.875 13.279 29.8125C13.279 30 14.3705 30 14.5524 30C21.2829 30 26.9219 25.3125 28.559 18.75H32.0152C32.9248 18.75 33.6524 18 33.6524 17.0625C33.6524 16.3125 32.9248 15.5625 32.0152 15.5625H29.1048C29.1048 15.375 29.1048 15.1875 29.1048 15C29.1048 14.8125 29.1048 14.625 29.1048 14.625H32.0152C32.9248 14.625 33.6524 13.875 33.6524 12.9375C33.6524 12 32.9248 11.25 32.0152 11.25H28.559C26.9219 4.6875 21.2829 0 14.5524 0C6.54857 0 0 6.75 0 15C0 15.5625 0 15.9375 0 16.5V27.1875C0 30.75 5.27524 30.75 5.27524 27.1875V26.625V26.4375C5.27524 22.6875 5.27524 18.75 5.27524 15Z" fill="white"/>
<path d="M37.6543 15.5625C37.6543 13.5 38.2 11.625 38.9276 10.125C39.8372 8.4375 41.1105 7.125 42.5657 6.375C44.2029 5.4375 45.84 4.875 47.841 4.875C50.2057 4.875 52.2067 5.625 54.0257 6.9375C55.6629 8.25 56.7543 9.9375 57.4819 12.1875H52.0248C51.661 11.4375 51.1152 10.6875 50.2057 10.3125C49.4781 9.75 48.7505 9.5625 47.841 9.5625C46.2038 9.5625 45.1124 10.125 44.021 11.25C43.1114 12.1875 42.7476 13.6875 42.7476 15.5625C42.7476 17.4375 43.1114 18.75 44.021 19.875C45.1124 21 46.2038 21.5625 47.841 21.5625C48.7505 21.5625 49.4781 21.375 50.2057 20.8125C51.1152 20.4375 51.661 19.6875 52.0248 18.9375H57.4819C56.7543 21.1875 55.6629 22.875 54.0257 24.1875C52.2067 25.5 50.2057 26.0625 47.841 26.0625C45.84 26.0625 44.2029 25.6875 42.5657 24.75C41.1105 23.8125 39.8372 22.6875 38.9276 21C38.2 19.5 37.6543 17.625 37.6543 15.5625ZM77.8552 5.25V25.875H72.9438V17.4375H65.3038V25.875H60.3924V5.25H65.3038V13.3125H72.9438V5.25H77.8552ZM86.2229 5.25V25.875H81.3114V5.25H86.2229ZM101.503 25.875L94.7724 16.875V25.875H89.861V5.25H94.7724V14.25L101.503 5.25H107.324L99.5019 15.375L107.506 25.875H101.503ZM119.33 26.25C117.51 26.25 115.691 25.6875 114.236 24.75C112.599 23.8125 111.326 22.6875 110.416 21C109.507 19.3125 108.961 17.625 108.961 15.5625C108.961 13.5 109.507 11.625 110.416 10.125C111.326 8.4375 112.599 7.125 114.236 6.1875C115.691 5.4375 117.51 4.875 119.33 4.875C121.33 4.875 122.968 5.4375 124.605 6.1875C126.242 7.125 127.333 8.4375 128.243 10.125C129.152 11.625 129.698 13.5 129.698 15.5625C129.698 17.625 129.152 19.3125 128.243 21C127.333 22.6875 126.06 23.8125 124.605 24.75C122.968 25.6875 121.33 26.25 119.33 26.25ZM119.33 21.5625C120.967 21.5625 122.24 21 123.15 19.875C124.241 18.75 124.605 17.25 124.605 15.5625C124.605 13.6875 124.241 12.1875 123.15 11.0625C122.24 9.9375 120.967 9.5625 119.33 9.5625C117.692 9.5625 116.419 9.9375 115.51 11.0625C114.6 12.1875 114.054 13.6875 114.054 15.5625C114.054 17.4375 114.6 18.75 115.51 19.875C116.419 21 117.692 21.5625 119.33 21.5625ZM141.886 26.25C140.067 26.25 138.248 25.6875 136.792 24.75C135.155 23.8125 133.882 22.6875 132.972 21C132.063 19.3125 131.517 17.625 131.517 15.5625C131.517 13.5 132.063 11.625 132.972 10.125C133.882 8.4375 135.155 7.125 136.792 6.1875C138.248 5.4375 140.067 4.875 141.886 4.875C143.887 4.875 145.524 5.4375 147.161 6.1875C148.798 7.125 149.89 8.4375 150.799 10.125C151.709 11.625 152.254 13.5 152.254 15.5625C152.254 17.625 151.709 19.3125 150.799 21C149.89 22.6875 148.616 23.8125 147.161 24.75C145.524 25.6875 143.887 26.25 141.886 26.25ZM141.886 21.5625C143.523 21.5625 144.796 21 145.706 19.875C146.797 18.75 147.161 17.25 147.161 15.5625C147.161 13.6875 146.797 12.1875 145.706 11.0625C144.796 9.9375 143.523 9.5625 141.886 9.5625C140.249 9.5625 138.975 9.9375 138.066 11.0625C137.156 12.1875 136.61 13.6875 136.61 15.5625C136.61 17.4375 137.156 18.75 138.066 19.875C138.975 21 140.249 21.5625 141.886 21.5625ZM160.258 21.75H168.808V25.875H154.619V22.125L163.169 9.375H154.619V5.25H168.808V9L160.258 21.75ZM184.633 22.3125H176.993L175.902 25.875H170.809L178.085 5.25H183.724L191 25.875H185.725L184.633 22.3125ZM183.36 18.375L180.813 10.6875L178.449 18.375H183.36Z" fill="white"/>
</svg>
